<svg width="25" height="23" viewBox="-1 -1 27 25" xmlns="http://www.w3.org/2000/svg">
  <path d="M18.652 0.118408C15.9926 0.118408 13.7961 2.58857 12.9078 3.75439C12.0195 2.58857 9.82303 0.118408 7.16359 0.118408C3.72082 0.118408 0.919922 3.28368 0.919922 7.17379C0.919922 9.29616 1.76235 11.2741 3.23691 12.6278C3.25835 12.6648 3.28472 12.699 3.31544 12.7297L12.5551 21.9503C12.6527 22.0474 12.78 22.0962 12.9078 22.0962C13.0356 22.0962 13.1634 22.0474 13.261 21.9499L22.808 12.4063L22.9065 12.3107C22.9846 12.237 23.0616 12.1624 23.1479 12.0668C23.184 12.0312 23.2138 11.9912 23.2367 11.9478C24.3074 10.6366 24.8957 8.94542 24.8957 7.17379C24.8957 3.28368 22.0948 0.118408 18.652 0.118408Z" fill="red" stroke="black" stroke-width="1"></path>
</svg>
